# xmcd
#
# Track frame offsets:
#	150
#	18975
#	44625
#	80062
#	107437
#	129812
#
# Disc length: 2081
#
# Revision: 3
# Processed by: cddbd v1.5.1PL0 Copyright (c) Steve Scherf et al.
# Submitted via: EasyCDDAExtractor 5.0.6
# Normalized: r2:DSETVAR1
#
DISCID=42081f06
DTITLE=Various Artist - Megamix
DYEAR=1900
DGENRE=Pop
TTITLE0=Double You And K.C - Why(Let's Make It Christmas)
TTITLE1=Double You - Drive(Extended Mix)
TTITLE2=Double You - Megamix
TTITLE3=Double You - With Or Without You(Long Mix)
TTITLE4=Double You - Looking At My Girl(Club Mix)
TTITLE5=Double You - Walking On The Chinese Wall(Long Mix)
EXTD=
EXTT0=
EXTT1=
EXTT2=
EXTT3=
EXTT4=
EXTT5=
PLAYORDER=
